<?xml version="1.0" standalone="no"?>
<!DOCTYPE svg PUBLIC "-//W3C//DTD SVG 20010904//EN"
 "http://www.w3.org/TR/2001/REC-SVG-20010904/DTD/svg10.dtd">
<svg version="1.0" xmlns="http://www.w3.org/2000/svg"
 width="260.000000pt" height="260.000000pt" viewBox="0 0 260.000000 260.000000"
 preserveAspectRatio="xMidYMid meet">
<metadata>
Created by potrace 1.14, written by Peter Selinger 2001-2017
</metadata>
<g transform="translate(0.000000,260.000000) scale(0.100000,-0.100000)"
fill="#000000" stroke="none">
<path d="M1095 2584 c-552 -84 -998 -534 -1079 -1085 -94 -637 271 -1232 877
-1434 678 -226 1415 146 1642 828 226 678 -146 1415 -828 1642 -185 61 -413
80 -612 49z m270 -330 c8 -4 22 -19 30 -34 11 -21 295 -1825 295 -1872 0 -4
-49 -8 -109 -8 l-108 0 -6 28 c-2 15 -40 300 -83 635 -43 334 -81 607 -84 607
-3 0 -41 -273 -84 -607 -43 -335 -81 -620 -83 -635 l-5 -28 -109 0 c-60 0
-109 3 -109 8 0 11 280 1864 285 1890 5 20 11 22 79 22 41 0 82 -3 91 -6z"/>
</g>
</svg>
